<?xml version="1.0" encoding="utf-8"?>
<!-- Generator: Adobe Illustrator 16.0.0, SVG Export Plug-In . SVG Version: 6.00 Build 0)  -->
<!DOCTYPE svg PUBLIC "-//W3C//DTD SVG 1.1//EN" "http://www.w3.org/Graphics/SVG/1.1/DTD/svg11.dtd">
<svg version="1.1" id="Layer_1" xmlns="http://www.w3.org/2000/svg" xmlns:xlink="http://www.w3.org/1999/xlink" x="0px" y="0px"
	 width="200px" height="72px" viewBox="150 214 200 72" enable-background="new 150 214 200 72" xml:space="preserve">
<g>
	<g>
		<path fill="#1C4935" d="M225.864,250c0,18.137-14.702,32.835-32.834,32.835c-18.14,0-32.835-14.698-32.835-32.835
			c0-18.138,14.695-32.835,32.835-32.835C211.162,217.165,225.864,231.863,225.864,250z"/>
		<g>
			<path fill="#8BC234" d="M198.406,258.914v4.934l-0.335,0.049c-0.276,0.041-0.558,0.056-0.851,0.056
				c-3.358,0-6.23-2.854-6.403-6.361c-0.009-0.063-0.007-0.153-0.002-0.243l0-2.585c-1.419-0.365-2.905-0.563-4.437-0.563
				c-4.54,0-8.827,1.96-11.955,4.773c0.641,0.9,4.435,5.452,13.627,4.781c0.054,0.107,6.833-0.552,9.479,1.14
				c0-0.042-3.907-0.897-8.285-0.219c-0.299-0.026-7.918,1.029-13.234-2.93c0-0.047-1.502-0.909-2.42-2.027
				c-0.007,0.007-0.073-0.081-0.082-0.073c-2.517-3.062-4.013-7.156-4.013-11.784c0-2.836,0.186-4.679,1.199-7.022
				c-1.965,2.916-2.748,5.826-2.748,9.872c0,6.59,3.17,12.206,7.673,15.113c1.143,0.734,3.482,1.897,6.744,2.598
				c1.246,0.269,2.538,0.424,3.863,0.443c0.106,0.002,0.213,0.003,0.32,0.003c0.805,0,1.587-0.052,2.369-0.143
				c0.923-0.104,4.466-0.416,5.194-0.416c3.801,0,7.003,0.923,9.943,2.89c-0.116-3.28-1.133-6.326-2.8-8.905
				C200.45,261.054,199.489,259.917,198.406,258.914z"/>
			<path fill="#FFFFFF" d="M218.075,249.303c-0.521-6.913-6.302-12.354-13.343-12.354c-4.087,0-7.744,1.823-10.192,4.712
				c-1.835-2.696-5.023-4.838-8.536-4.838c-0.154,0-0.523-0.013-0.673-0.004v6.676c3.183,0.363,5.876,3.12,5.876,6.392
				c0,0.311,0.04,0.611,0,0.897c0,0,0,6.33,0,6.475c0,0.104-0.013,0.208,0,0.313c0.156,3.173,2.798,5.99,6.012,5.99
				c0.274,0,0.535-0.013,0.796-0.053c0,0,0-13.075,0-13.179c0-3.711,3.006-6.717,6.716-6.717c3.708,0,6.703,3.006,6.703,6.717
				c0,0.104,0,0.208-0.013,0.311h0.013v7.329c0.443,3.11,3.099,5.479,6.314,5.479c0.103,0,0.221,0,0.326-0.013v-12.078
				c0.012-0.221,0.025-0.441,0.025-0.678c0.012-0.118,0.012-0.235,0.012-0.351C218.112,249.979,218.1,249.641,218.075,249.303z"/>
			<path fill="#FFFFFF" d="M177.724,236.78c0.078-0.417,0.078-0.807,0.078-1.25c0-3.696-2.981-6.688-6.677-6.728
				c0,0,0.026,14.721,0.052,20.474c0.026,1.315,0.026,2.161,0.039,2.25c0.054,0.534,0.155,3.346,2.93,7.043
				c1.626-1.459,3.72-2.734,5.712-3.516c-0.988-0.937-1.938-2.211-2.095-3.501v-8.056h7.094v-6.248v-0.428L177.724,236.78z"/>
		</g>
	</g>
	<g>
		<path fill="#1C4935" d="M255.065,237.769h-1.146c-0.305-0.894-0.791-1.851-1.461-2.871c-0.672-1.02-1.292-1.57-1.859-1.647
			c-0.313-0.041-0.699-0.074-1.158-0.103c-0.46-0.03-0.857-0.045-1.19-0.045h-0.689v16.379c0,0.354,0.063,0.666,0.191,0.936
			c0.126,0.27,0.377,0.484,0.75,0.638c0.224,0.09,0.576,0.181,1.052,0.273c0.477,0.092,0.881,0.159,1.214,0.197v1.149h-11.639
			v-1.149c0.284-0.027,0.683-0.068,1.196-0.123c0.517-0.055,0.867-0.119,1.054-0.199c0.383-0.156,0.637-0.369,0.766-0.634
			c0.126-0.264,0.191-0.576,0.191-0.941v-16.527h-0.69c-0.333,0-0.729,0.016-1.189,0.045c-0.46,0.029-0.847,0.063-1.159,0.103
			c-0.569,0.078-1.188,0.628-1.858,1.648c-0.671,1.02-1.158,1.976-1.461,2.87h-1.148v-5.976h20.235L255.065,237.769L255.065,237.769
			z"/>
		<path fill="#1C4935" d="M284.97,252.674h-11.316v-1.147c0.331-0.027,0.743-0.078,1.229-0.146c0.483-0.068,0.815-0.144,0.992-0.221
			c0.362-0.148,0.623-0.35,0.78-0.604s0.234-0.578,0.234-0.971v-15.6l-7.179,18.351h-1.857c-0.087-0.321-0.304-0.966-0.652-1.928
			c-0.349-0.959-0.632-1.73-0.846-2.309l-5.284-14.349v12.7c0,1.217,0.08,2.141,0.243,2.774c0.161,0.633,0.424,1.096,0.786,1.39
			c0.246,0.207,0.685,0.402,1.317,0.59c0.632,0.185,1.078,0.295,1.33,0.322v1.147h-8.977v-1.147
			c0.247-0.027,0.646-0.095,1.199-0.198c0.556-0.103,1.011-0.28,1.363-0.537c0.392-0.274,0.657-0.737,0.795-1.39
			c0.136-0.653,0.205-1.583,0.205-2.789v-10.346c0-0.629-0.078-1.151-0.235-1.568c-0.156-0.417-0.393-0.748-0.706-0.993
			c-0.393-0.306-0.795-0.501-1.208-0.59c-0.411-0.088-0.828-0.148-1.249-0.176v-1.148h9.622l5.146,13.759l4.339-11.165
			c0.148-0.413,0.29-0.905,0.427-1.474c0.138-0.569,0.212-0.942,0.224-1.12h9.248v1.149c-0.314,0.019-0.641,0.057-0.984,0.118
			c-0.344,0.059-0.673,0.136-0.988,0.235c-0.383,0.128-0.634,0.33-0.757,0.603c-0.124,0.274-0.184,0.579-0.184,0.913V249.6
			c0,0.354,0.06,0.65,0.184,0.89c0.123,0.239,0.375,0.447,0.757,0.624c0.197,0.089,0.519,0.172,0.964,0.25
			c0.446,0.079,0.794,0.134,1.04,0.161v1.148H284.97z"/>
		<path fill="#1C4935" d="M305.558,243.096c0.628,0.431,1.139,0.975,1.532,1.626c0.392,0.653,0.588,1.419,0.588,2.303
			c0,1.058-0.224,1.956-0.669,2.685c-0.445,0.731-1.087,1.307-1.921,1.729c-0.886,0.452-1.901,0.769-3.056,0.957
			c-1.152,0.186-2.509,0.277-4.067,0.277h-10.846v-1.147c0.303-0.027,0.687-0.071,1.147-0.13c0.461-0.062,0.783-0.129,0.97-0.206
			c0.365-0.147,0.613-0.342,0.744-0.582c0.133-0.24,0.199-0.552,0.199-0.934v-14.718c0-0.352-0.055-0.647-0.163-0.882
			c-0.107-0.235-0.368-0.442-0.782-0.618c-0.302-0.129-0.654-0.233-1.058-0.317c-0.401-0.083-0.756-0.149-1.058-0.198v-1.149h11.346
			c2.854,0,4.915,0.394,6.18,1.178c1.265,0.785,1.897,1.942,1.897,3.474c0,0.706-0.141,1.327-0.425,1.86
			c-0.284,0.536-0.693,1-1.223,1.393c-0.481,0.362-1.054,0.678-1.721,0.941c-0.67,0.266-1.385,0.485-2.149,0.662v0.28
			c0.765,0.078,1.56,0.247,2.384,0.508C304.233,242.348,304.949,242.683,305.558,243.096z M300.819,236.811
			c0-1.156-0.327-2.058-0.979-2.708c-0.653-0.646-1.633-0.97-2.936-0.97c-0.188,0-0.43,0.006-0.728,0.021
			c-0.3,0.014-0.559,0.027-0.772,0.037v7.741h0.763c1.591,0,2.765-0.371,3.518-1.111
			C300.44,239.079,300.819,238.078,300.819,236.811z M301.849,246.841c0-1.455-0.432-2.57-1.293-3.347
			c-0.864-0.775-2.106-1.163-3.725-1.163c-0.187,0-0.435,0.006-0.744,0.021c-0.309,0.014-0.536,0.027-0.682,0.036v7.652
			c0.086,0.363,0.36,0.67,0.823,0.921c0.461,0.25,1.021,0.375,1.678,0.375c1.168,0,2.115-0.395,2.849-1.179
			C301.485,249.372,301.849,248.266,301.849,246.841z"/>
		<path fill="#1C4935" d="M319.083,252.674h-9.3v-1.073c0.254-0.02,0.505-0.045,0.748-0.074c0.246-0.027,0.458-0.078,0.634-0.146
			c0.313-0.121,0.535-0.288,0.662-0.509c0.128-0.221,0.192-0.513,0.192-0.875v-8.564c0-0.345-0.08-0.646-0.236-0.906
			c-0.156-0.26-0.353-0.468-0.588-0.625c-0.178-0.117-0.443-0.23-0.805-0.339c-0.357-0.106-0.682-0.175-0.977-0.204v-1.075
			l7.21-0.383l0.223,0.219v11.687c0,0.344,0.072,0.635,0.22,0.875c0.148,0.241,0.358,0.419,0.634,0.538
			c0.196,0.088,0.409,0.167,0.646,0.235c0.235,0.067,0.48,0.117,0.736,0.146V252.674z M316.935,232.604
			c0,0.746-0.287,1.38-0.862,1.905c-0.572,0.525-1.254,0.788-2.036,0.788c-0.796,0-1.48-0.262-2.056-0.788
			c-0.572-0.525-0.86-1.16-0.86-1.905c0-0.747,0.287-1.383,0.86-1.914c0.575-0.53,1.26-0.794,2.056-0.794
			c0.794,0,1.475,0.265,2.045,0.794C316.649,231.219,316.935,231.856,316.935,232.604z"/>
		<path fill="#1C4935" d="M329.429,252.674h-9.272v-1.073c0.258-0.02,0.507-0.045,0.748-0.074c0.243-0.027,0.456-0.078,0.646-0.146
			c0.315-0.121,0.531-0.288,0.644-0.509c0.113-0.221,0.172-0.513,0.172-0.875V233.69c0-0.373-0.075-0.717-0.229-1.037
			c-0.152-0.318-0.355-0.562-0.61-0.728c-0.195-0.127-0.493-0.25-0.89-0.367c-0.398-0.118-0.749-0.188-1.053-0.207v-1.075
			l7.417-0.382l0.222,0.235v19.677c0,0.363,0.064,0.656,0.192,0.881c0.129,0.227,0.335,0.404,0.622,0.532
			c0.198,0.088,0.407,0.167,0.623,0.235c0.218,0.067,0.476,0.117,0.771,0.146v1.073H329.429z"/>
		<path fill="#1C4935" d="M339.804,252.674h-9.273v-1.073c0.259-0.02,0.507-0.045,0.751-0.074c0.242-0.027,0.455-0.078,0.643-0.146
			c0.316-0.121,0.532-0.288,0.645-0.509c0.114-0.221,0.173-0.513,0.173-0.875V233.69c0-0.373-0.077-0.717-0.229-1.037
			c-0.154-0.318-0.354-0.562-0.611-0.728c-0.195-0.127-0.493-0.25-0.89-0.367c-0.397-0.118-0.749-0.188-1.053-0.207v-1.075
			l7.416-0.382l0.225,0.235v19.677c0,0.363,0.064,0.656,0.19,0.881c0.128,0.227,0.337,0.404,0.622,0.532
			c0.199,0.088,0.406,0.167,0.624,0.235c0.217,0.067,0.474,0.117,0.77,0.146v1.073H339.804z"/>
	</g>
	<g>
		<path fill="#1C4935" d="M245.05,272.272c-0.078,0.009-0.146,0.016-0.207,0.026c-0.059,0.011-0.134,0.031-0.226,0.061
			c-0.103,0.032-0.17,0.085-0.2,0.161c-0.034,0.074-0.05,0.151-0.05,0.235v0.619c0,0.125,0.002,0.227,0.003,0.302
			c0.002,0.076,0.008,0.172,0.014,0.283c-0.251,0.15-0.62,0.292-1.109,0.423c-0.488,0.133-0.938,0.198-1.349,0.198
			c-0.384,0-0.746-0.057-1.083-0.174c-0.337-0.118-0.634-0.296-0.888-0.528c-0.255-0.233-0.457-0.523-0.602-0.866
			c-0.146-0.347-0.22-0.743-0.22-1.187c0-0.414,0.069-0.801,0.207-1.152c0.137-0.354,0.336-0.655,0.596-0.912
			c0.256-0.253,0.566-0.448,0.933-0.586c0.364-0.136,0.77-0.206,1.214-0.206c0.303,0,0.583,0.038,0.841,0.113
			c0.258,0.075,0.47,0.155,0.637,0.239l0.233-0.206h0.325l0.034,1.941h-0.33c-0.19-0.582-0.417-1.017-0.682-1.3
			c-0.266-0.281-0.602-0.422-1.005-0.422c-0.479,0-0.85,0.207-1.111,0.628c-0.263,0.421-0.392,1.001-0.392,1.738
			c0,0.782,0.128,1.396,0.384,1.839c0.256,0.442,0.62,0.664,1.09,0.664c0.219,0,0.415-0.033,0.585-0.1
			c0.171-0.065,0.305-0.143,0.399-0.23v-1.08c0-0.09-0.016-0.166-0.048-0.227c-0.033-0.061-0.097-0.113-0.196-0.159
			c-0.075-0.034-0.168-0.063-0.28-0.084c-0.113-0.024-0.207-0.04-0.282-0.051v-0.292h2.764L245.05,272.272L245.05,272.272z"/>
		<path fill="#1C4935" d="M249.111,271.159c0.185,0.173,0.327,0.379,0.424,0.618c0.098,0.241,0.147,0.501,0.147,0.782
			c0,0.276-0.049,0.537-0.146,0.783c-0.095,0.247-0.236,0.458-0.421,0.633c-0.199,0.187-0.435,0.331-0.707,0.431
			c-0.274,0.1-0.587,0.151-0.941,0.151c-0.303,0-0.585-0.046-0.841-0.134c-0.256-0.087-0.482-0.219-0.68-0.393
			c-0.191-0.168-0.341-0.375-0.45-0.622c-0.111-0.245-0.165-0.52-0.165-0.825c0-0.3,0.048-0.567,0.143-0.801
			c0.097-0.234,0.242-0.441,0.434-0.624c0.185-0.177,0.413-0.31,0.685-0.407c0.271-0.096,0.573-0.145,0.909-0.145
			c0.35,0,0.657,0.049,0.925,0.145C248.69,270.85,248.921,270.982,249.111,271.159z M248.151,273.757
			c0.054-0.14,0.095-0.311,0.121-0.51c0.028-0.199,0.039-0.432,0.039-0.696c0-0.176-0.011-0.375-0.036-0.601
			c-0.026-0.225-0.062-0.403-0.113-0.532c-0.06-0.158-0.143-0.283-0.248-0.371c-0.108-0.092-0.241-0.136-0.404-0.136
			c-0.178,0-0.32,0.048-0.426,0.146c-0.106,0.099-0.187,0.226-0.245,0.379c-0.052,0.144-0.089,0.31-0.109,0.502
			c-0.021,0.19-0.031,0.39-0.031,0.598c0,0.273,0.011,0.496,0.027,0.677c0.016,0.178,0.061,0.358,0.127,0.538
			c0.058,0.155,0.141,0.277,0.249,0.367c0.105,0.091,0.243,0.135,0.408,0.135c0.149,0,0.278-0.04,0.385-0.124
			C248.004,274.043,248.088,273.92,248.151,273.757z"/>
		<path fill="#1C4935" d="M258.078,272.272c-0.076,0.009-0.146,0.016-0.205,0.026c-0.061,0.011-0.136,0.031-0.226,0.061
			c-0.103,0.032-0.169,0.085-0.201,0.161c-0.034,0.074-0.049,0.151-0.049,0.235v0.619c0,0.125,0.002,0.227,0.003,0.302
			c0.004,0.076,0.008,0.172,0.012,0.283c-0.25,0.15-0.62,0.292-1.109,0.423c-0.486,0.133-0.936,0.198-1.346,0.198
			c-0.385,0-0.746-0.057-1.084-0.174c-0.336-0.118-0.634-0.296-0.889-0.528c-0.254-0.233-0.456-0.523-0.602-0.866
			c-0.146-0.347-0.22-0.743-0.22-1.187c0-0.414,0.068-0.801,0.207-1.152c0.138-0.354,0.336-0.655,0.595-0.912
			c0.257-0.253,0.567-0.448,0.934-0.586c0.365-0.136,0.771-0.206,1.216-0.206c0.303,0,0.584,0.038,0.842,0.113
			c0.255,0.075,0.468,0.155,0.636,0.239l0.231-0.206h0.327l0.034,1.941h-0.329c-0.191-0.582-0.418-1.017-0.683-1.3
			c-0.267-0.281-0.601-0.422-1.005-0.422c-0.48,0-0.851,0.207-1.111,0.628c-0.262,0.421-0.394,1.001-0.394,1.738
			c0,0.782,0.129,1.396,0.385,1.839c0.258,0.442,0.621,0.664,1.091,0.664c0.219,0,0.414-0.033,0.586-0.1
			c0.171-0.065,0.304-0.143,0.398-0.23v-1.08c0-0.09-0.016-0.166-0.048-0.227s-0.098-0.113-0.194-0.159
			c-0.077-0.034-0.17-0.063-0.281-0.084c-0.113-0.024-0.206-0.04-0.281-0.051v-0.292h2.763v0.29H258.078z"/>
		<path fill="#1C4935" d="M262.047,271.403c0,0.19-0.058,0.357-0.176,0.5c-0.117,0.145-0.272,0.215-0.465,0.215
			c-0.183,0-0.338-0.046-0.464-0.138c-0.127-0.094-0.188-0.226-0.188-0.407c0-0.087,0.006-0.154,0.017-0.204
			c0.013-0.047,0.025-0.093,0.034-0.135c-0.113,0.005-0.234,0.043-0.362,0.119c-0.128,0.074-0.241,0.172-0.338,0.297v2.058
			c0,0.088,0.015,0.161,0.041,0.22c0.028,0.056,0.073,0.102,0.141,0.134c0.053,0.025,0.144,0.05,0.268,0.068s0.213,0.03,0.267,0.032
			v0.273h-2.507v-0.273c0.06-0.004,0.124-0.013,0.188-0.021c0.065-0.008,0.119-0.02,0.165-0.034
			c0.078-0.027,0.135-0.069,0.164-0.128c0.028-0.057,0.044-0.132,0.044-0.226v-2.183c0-0.089-0.02-0.17-0.064-0.24
			c-0.04-0.07-0.093-0.128-0.152-0.171c-0.045-0.03-0.103-0.057-0.171-0.075c-0.069-0.021-0.145-0.035-0.227-0.042v-0.273
			l1.787-0.097l0.058,0.056v0.544h0.016c0.173-0.199,0.354-0.357,0.548-0.471c0.194-0.114,0.397-0.17,0.607-0.17
			c0.23,0,0.419,0.071,0.561,0.216C261.976,270.988,262.047,271.176,262.047,271.403z"/>
		<path fill="#1C4935" d="M266.335,273.541c-0.086,0.141-0.193,0.276-0.315,0.402c-0.124,0.125-0.264,0.233-0.421,0.324
			c-0.167,0.095-0.338,0.167-0.509,0.216c-0.172,0.049-0.367,0.074-0.591,0.074c-0.369,0-0.688-0.055-0.958-0.16
			c-0.27-0.104-0.491-0.244-0.667-0.422c-0.173-0.178-0.304-0.387-0.39-0.628c-0.088-0.241-0.131-0.504-0.131-0.785
			c0-0.257,0.047-0.499,0.142-0.732c0.093-0.235,0.228-0.441,0.398-0.624c0.172-0.179,0.384-0.322,0.645-0.433
			c0.257-0.109,0.547-0.164,0.866-0.164c0.351,0,0.638,0.041,0.863,0.126c0.225,0.087,0.411,0.203,0.558,0.354
			c0.144,0.143,0.247,0.309,0.312,0.503c0.065,0.195,0.097,0.399,0.097,0.611v0.242h-2.534c0,0.514,0.101,0.903,0.297,1.171
			c0.198,0.268,0.513,0.4,0.941,0.4c0.235,0,0.447-0.063,0.634-0.193c0.188-0.127,0.349-0.292,0.48-0.489L266.335,273.541z
			 M264.902,272.115c0-0.149-0.007-0.305-0.021-0.462c-0.014-0.156-0.04-0.285-0.078-0.386c-0.042-0.118-0.101-0.206-0.173-0.266
			c-0.074-0.062-0.169-0.091-0.279-0.091c-0.193,0-0.347,0.098-0.462,0.293c-0.116,0.194-0.177,0.503-0.189,0.924L264.902,272.115z"
			/>
		<path fill="#1C4935" d="M270.729,273.541c-0.09,0.141-0.194,0.276-0.318,0.402c-0.126,0.125-0.264,0.233-0.422,0.324
			c-0.168,0.095-0.338,0.167-0.51,0.216c-0.17,0.049-0.367,0.074-0.588,0.074c-0.37,0-0.69-0.055-0.959-0.16
			c-0.269-0.104-0.491-0.244-0.665-0.422c-0.176-0.178-0.307-0.387-0.392-0.628c-0.087-0.241-0.13-0.504-0.13-0.785
			c0-0.257,0.047-0.499,0.14-0.732c0.093-0.235,0.228-0.441,0.399-0.624c0.17-0.179,0.385-0.322,0.645-0.433
			c0.257-0.109,0.547-0.164,0.868-0.164c0.348,0,0.637,0.041,0.861,0.126c0.224,0.087,0.411,0.203,0.559,0.354
			c0.143,0.143,0.248,0.309,0.313,0.503c0.064,0.195,0.097,0.399,0.097,0.611v0.242h-2.536c0,0.514,0.101,0.903,0.299,1.171
			c0.195,0.268,0.511,0.4,0.939,0.4c0.235,0,0.447-0.063,0.634-0.193c0.187-0.127,0.348-0.292,0.48-0.489L270.729,273.541z
			 M269.293,272.115c0-0.149-0.008-0.305-0.021-0.462c-0.015-0.156-0.041-0.285-0.079-0.386c-0.04-0.118-0.1-0.206-0.173-0.266
			c-0.074-0.062-0.168-0.091-0.279-0.091c-0.193,0-0.346,0.098-0.462,0.293c-0.115,0.194-0.177,0.503-0.188,0.924L269.293,272.115z"
			/>
		<path fill="#1C4935" d="M276.036,274.436h-2.253v-0.273c0.048-0.004,0.104-0.011,0.172-0.019c0.068-0.007,0.119-0.02,0.155-0.037
			c0.052-0.027,0.091-0.068,0.11-0.12c0.024-0.052,0.035-0.131,0.035-0.233v-1.754c0-0.254-0.047-0.446-0.141-0.576
			c-0.094-0.128-0.233-0.192-0.416-0.192c-0.1,0-0.193,0.016-0.279,0.044c-0.087,0.03-0.172,0.074-0.255,0.133
			c-0.073,0.049-0.128,0.101-0.174,0.154c-0.045,0.051-0.08,0.098-0.111,0.138v2.013c0,0.089,0.013,0.162,0.037,0.219
			c0.026,0.06,0.067,0.105,0.124,0.135c0.04,0.021,0.091,0.042,0.15,0.062c0.06,0.016,0.119,0.029,0.177,0.037v0.271h-2.279v-0.271
			c0.061-0.005,0.124-0.014,0.188-0.023c0.064-0.007,0.118-0.018,0.162-0.034c0.081-0.026,0.138-0.069,0.167-0.126
			c0.03-0.059,0.043-0.133,0.043-0.228v-2.183c0-0.076-0.019-0.152-0.06-0.228s-0.092-0.135-0.156-0.183
			c-0.047-0.029-0.104-0.056-0.172-0.075c-0.069-0.021-0.145-0.033-0.227-0.04v-0.274l1.79-0.097l0.055,0.056v0.543h0.016
			c0.069-0.063,0.155-0.139,0.254-0.225c0.102-0.088,0.193-0.158,0.279-0.215c0.092-0.06,0.211-0.11,0.361-0.152
			c0.149-0.042,0.31-0.064,0.479-0.064c0.408,0,0.714,0.115,0.918,0.349c0.203,0.23,0.305,0.537,0.305,0.919v1.837
			c0,0.094,0.013,0.166,0.041,0.221c0.029,0.056,0.079,0.1,0.154,0.132c0.039,0.017,0.088,0.035,0.148,0.054
			c0.06,0.017,0.125,0.029,0.199,0.037L276.036,274.436L276.036,274.436z"/>
		<path fill="#1C4935" d="M278.17,273.814c0,0.197-0.073,0.368-0.22,0.512c-0.147,0.146-0.318,0.218-0.52,0.218
			s-0.377-0.07-0.522-0.213c-0.146-0.146-0.22-0.317-0.22-0.517s0.072-0.374,0.22-0.52c0.146-0.146,0.321-0.22,0.522-0.22
			s0.375,0.073,0.52,0.221C278.097,273.443,278.17,273.616,278.17,273.814z"/>
		<path fill="#1C4935" d="M280.689,273.814c0,0.197-0.072,0.368-0.221,0.512c-0.145,0.146-0.317,0.218-0.519,0.218
			c-0.202,0-0.377-0.07-0.521-0.213c-0.147-0.146-0.22-0.317-0.22-0.517s0.071-0.374,0.22-0.52c0.146-0.146,0.319-0.22,0.521-0.22
			c0.201,0,0.376,0.073,0.519,0.221C280.616,273.443,280.689,273.616,280.689,273.814z"/>
		<path fill="#1C4935" d="M283.209,273.814c0,0.197-0.073,0.368-0.219,0.512c-0.146,0.146-0.319,0.218-0.521,0.218
			s-0.377-0.07-0.522-0.213c-0.146-0.146-0.218-0.317-0.218-0.517s0.071-0.374,0.218-0.52s0.321-0.22,0.522-0.22
			s0.374,0.073,0.521,0.221C283.136,273.443,283.209,273.616,283.209,273.814z"/>
		<path fill="#1C4935" d="M289.908,272.272c-0.077,0.009-0.145,0.016-0.206,0.026c-0.061,0.011-0.133,0.031-0.226,0.061
			c-0.1,0.032-0.168,0.085-0.201,0.161c-0.031,0.074-0.049,0.151-0.049,0.235v0.619c0,0.125,0.001,0.227,0.005,0.302
			c0.003,0.076,0.005,0.172,0.011,0.283c-0.251,0.15-0.619,0.292-1.107,0.423c-0.489,0.133-0.937,0.198-1.346,0.198
			c-0.387,0-0.75-0.057-1.088-0.174c-0.336-0.118-0.632-0.296-0.887-0.528c-0.254-0.233-0.455-0.523-0.603-0.866
			c-0.146-0.347-0.219-0.743-0.219-1.187c0-0.414,0.067-0.801,0.205-1.152c0.138-0.354,0.338-0.655,0.597-0.912
			c0.256-0.253,0.566-0.448,0.933-0.586c0.366-0.136,0.772-0.206,1.216-0.206c0.304,0,0.583,0.038,0.841,0.113
			c0.256,0.075,0.47,0.155,0.637,0.239l0.231-0.206h0.327l0.036,1.941h-0.331c-0.19-0.582-0.418-1.017-0.683-1.3
			c-0.266-0.281-0.6-0.422-1.006-0.422c-0.479,0-0.85,0.207-1.111,0.628c-0.261,0.421-0.393,1.001-0.393,1.738
			c0,0.782,0.129,1.396,0.386,1.839c0.256,0.442,0.619,0.664,1.089,0.664c0.221,0,0.415-0.033,0.587-0.1
			c0.172-0.065,0.304-0.143,0.399-0.23v-1.08c0-0.09-0.018-0.166-0.049-0.227c-0.032-0.061-0.098-0.113-0.194-0.159
			c-0.076-0.034-0.17-0.063-0.283-0.084c-0.112-0.024-0.205-0.04-0.279-0.051v-0.292h2.762L289.908,272.272L289.908,272.272z"/>
		<path fill="#1C4935" d="M293.971,271.159c0.186,0.173,0.325,0.379,0.424,0.618c0.096,0.241,0.145,0.501,0.145,0.782
			c0,0.276-0.047,0.537-0.144,0.783c-0.097,0.247-0.236,0.458-0.422,0.633c-0.197,0.187-0.433,0.331-0.706,0.431
			c-0.274,0.1-0.588,0.151-0.939,0.151c-0.306,0-0.586-0.046-0.843-0.134c-0.257-0.087-0.482-0.219-0.681-0.393
			c-0.189-0.168-0.339-0.375-0.448-0.622c-0.111-0.245-0.166-0.52-0.166-0.825c0-0.3,0.049-0.567,0.146-0.801
			c0.096-0.234,0.24-0.441,0.434-0.624c0.184-0.177,0.413-0.31,0.684-0.407c0.271-0.096,0.572-0.145,0.908-0.145
			c0.352,0,0.66,0.049,0.925,0.145C293.552,270.85,293.78,270.982,293.971,271.159z M293.011,273.757
			c0.055-0.14,0.095-0.311,0.121-0.51s0.04-0.432,0.04-0.696c0-0.176-0.014-0.375-0.04-0.601c-0.023-0.225-0.061-0.403-0.109-0.532
			c-0.062-0.158-0.145-0.283-0.251-0.371c-0.106-0.092-0.242-0.136-0.404-0.136c-0.176,0-0.317,0.048-0.425,0.146
			c-0.105,0.099-0.188,0.226-0.246,0.379c-0.053,0.144-0.088,0.31-0.109,0.502c-0.02,0.19-0.029,0.39-0.029,0.598
			c0,0.273,0.009,0.496,0.026,0.677c0.019,0.178,0.06,0.358,0.128,0.538c0.058,0.155,0.139,0.277,0.247,0.367
			c0.107,0.091,0.243,0.135,0.408,0.135c0.149,0,0.279-0.04,0.386-0.124C292.862,274.043,292.947,273.92,293.011,273.757z"/>
		<path fill="#1C4935" d="M302.002,270.445c0,0.302-0.063,0.559-0.187,0.775c-0.123,0.217-0.295,0.392-0.511,0.528
			c-0.226,0.138-0.483,0.24-0.772,0.303c-0.288,0.063-0.61,0.093-0.971,0.093h-0.436v1.496c0,0.091,0.017,0.169,0.051,0.234
			c0.032,0.065,0.1,0.12,0.191,0.161c0.051,0.019,0.133,0.039,0.247,0.063c0.11,0.021,0.206,0.038,0.282,0.044v0.292h-2.883v-0.292
			c0.073-0.007,0.169-0.017,0.289-0.032c0.119-0.014,0.203-0.03,0.252-0.05c0.098-0.04,0.161-0.09,0.193-0.146
			c0.031-0.061,0.046-0.139,0.046-0.24v-3.754c0-0.087-0.015-0.164-0.045-0.226c-0.03-0.065-0.095-0.118-0.194-0.161
			c-0.07-0.03-0.164-0.057-0.279-0.08c-0.116-0.022-0.203-0.039-0.262-0.048v-0.291h2.936c0.688,0,1.202,0.109,1.542,0.328
			C301.831,269.661,302.002,269.996,302.002,270.445z M300.539,270.638c0-0.398-0.08-0.697-0.241-0.891s-0.447-0.29-0.863-0.29
			h-0.309v2.336h0.157c0.409,0,0.721-0.095,0.936-0.283C300.434,271.32,300.539,271.03,300.539,270.638z"/>
		<path fill="#1C4935" d="M306.643,274.358c-0.107,0.045-0.238,0.091-0.387,0.13c-0.15,0.039-0.31,0.061-0.477,0.061
			c-0.307,0-0.531-0.046-0.678-0.137c-0.145-0.092-0.242-0.222-0.295-0.392h-0.021c-0.087,0.084-0.168,0.156-0.247,0.216
			c-0.078,0.062-0.163,0.112-0.253,0.154c-0.118,0.056-0.231,0.097-0.339,0.123c-0.11,0.028-0.261,0.043-0.457,0.043
			c-0.291,0-0.539-0.086-0.745-0.259c-0.203-0.171-0.307-0.396-0.307-0.681c0-0.162,0.022-0.301,0.067-0.415
			c0.046-0.114,0.11-0.215,0.191-0.302c0.076-0.081,0.162-0.147,0.263-0.199c0.098-0.052,0.206-0.102,0.324-0.147
			c0.226-0.082,0.494-0.168,0.811-0.255c0.314-0.091,0.544-0.17,0.691-0.24v-0.357c0-0.064-0.005-0.146-0.016-0.25
			c-0.011-0.102-0.03-0.188-0.064-0.259c-0.033-0.079-0.09-0.146-0.164-0.203c-0.075-0.052-0.175-0.079-0.296-0.079
			c-0.111,0-0.203,0.014-0.277,0.046c-0.072,0.03-0.134,0.063-0.178,0.096c0.008,0.048,0.029,0.124,0.064,0.227
			c0.036,0.104,0.052,0.203,0.052,0.296c0,0.043-0.011,0.097-0.032,0.16c-0.022,0.065-0.055,0.114-0.1,0.152
			c-0.056,0.051-0.12,0.089-0.193,0.117c-0.071,0.026-0.18,0.039-0.329,0.039c-0.21,0-0.37-0.05-0.479-0.151
			c-0.107-0.1-0.158-0.232-0.158-0.395c0-0.14,0.054-0.267,0.164-0.377c0.112-0.112,0.247-0.203,0.408-0.276
			c0.156-0.073,0.339-0.134,0.544-0.175c0.204-0.04,0.393-0.06,0.568-0.06c0.243,0,0.467,0.013,0.67,0.04
			c0.2,0.03,0.384,0.09,0.546,0.181c0.155,0.087,0.277,0.212,0.37,0.379c0.091,0.166,0.136,0.385,0.136,0.65
			c0,0.283-0.007,0.617-0.017,1.006c-0.011,0.387-0.017,0.643-0.017,0.764c0,0.112,0.017,0.202,0.05,0.267
			c0.035,0.066,0.086,0.115,0.155,0.147c0.043,0.019,0.111,0.031,0.202,0.035c0.091,0.003,0.174,0.006,0.247,0.006V274.358
			L306.643,274.358z M304.784,272.403c-0.141,0.047-0.279,0.102-0.419,0.164c-0.139,0.062-0.25,0.125-0.338,0.194
			c-0.093,0.069-0.165,0.158-0.218,0.269c-0.053,0.108-0.078,0.237-0.078,0.384c0,0.197,0.042,0.338,0.133,0.427
			c0.088,0.088,0.199,0.13,0.329,0.13c0.139,0,0.252-0.029,0.342-0.085c0.088-0.055,0.168-0.125,0.234-0.208L304.784,272.403z"/>
		<path fill="#1C4935" d="M311.501,272.61c0,0.528-0.177,0.979-0.53,1.356c-0.352,0.378-0.798,0.568-1.336,0.568
			c-0.239,0-0.435-0.025-0.585-0.074c-0.148-0.049-0.272-0.109-0.371-0.179h-0.028v1.055c0,0.088,0.018,0.162,0.058,0.228
			c0.038,0.065,0.093,0.113,0.161,0.144c0.07,0.026,0.164,0.051,0.288,0.074c0.123,0.022,0.226,0.035,0.31,0.041v0.277h-2.711
			v-0.277c0.063-0.007,0.142-0.014,0.234-0.028c0.096-0.015,0.17-0.027,0.217-0.043c0.078-0.026,0.132-0.074,0.162-0.141
			c0.028-0.065,0.044-0.143,0.044-0.227v-3.836c-0.01-0.082-0.028-0.154-0.06-0.217c-0.031-0.063-0.081-0.118-0.146-0.166
			c-0.051-0.033-0.118-0.059-0.199-0.08c-0.084-0.021-0.164-0.035-0.244-0.043v-0.272l1.829-0.097l0.058,0.046v0.415l0.028,0.009
			c0.165-0.167,0.348-0.296,0.551-0.391c0.199-0.092,0.398-0.137,0.597-0.137c0.517,0,0.925,0.183,1.222,0.548
			C311.35,271.531,311.501,272.013,311.501,272.61z M310.152,272.624c0-0.187-0.014-0.364-0.04-0.538
			c-0.026-0.17-0.076-0.324-0.146-0.458c-0.067-0.135-0.155-0.243-0.267-0.323c-0.11-0.081-0.247-0.119-0.406-0.119
			c-0.161,0-0.292,0.028-0.39,0.083c-0.096,0.058-0.18,0.13-0.252,0.22v2.127c0.014,0.05,0.041,0.115,0.085,0.193
			c0.043,0.078,0.084,0.142,0.129,0.189c0.06,0.067,0.133,0.117,0.213,0.149c0.079,0.034,0.167,0.05,0.26,0.05
			c0.248,0,0.445-0.135,0.593-0.401C310.079,273.53,310.152,273.139,310.152,272.624z"/>
		<path fill="#1C4935" d="M316.015,273.541c-0.089,0.141-0.193,0.276-0.317,0.402c-0.123,0.125-0.263,0.233-0.422,0.324
			c-0.168,0.095-0.338,0.167-0.51,0.216c-0.169,0.049-0.367,0.074-0.589,0.074c-0.37,0-0.688-0.055-0.957-0.16
			c-0.27-0.104-0.492-0.244-0.668-0.422c-0.175-0.178-0.305-0.387-0.391-0.628c-0.087-0.241-0.129-0.504-0.129-0.785
			c0-0.257,0.048-0.499,0.141-0.732c0.094-0.235,0.227-0.441,0.4-0.624c0.168-0.179,0.383-0.322,0.642-0.433
			c0.259-0.109,0.549-0.164,0.869-0.164c0.351,0,0.637,0.041,0.861,0.126c0.226,0.087,0.411,0.203,0.559,0.354
			c0.144,0.143,0.246,0.309,0.311,0.503c0.066,0.195,0.099,0.399,0.099,0.611v0.242h-2.535c0,0.514,0.1,0.903,0.296,1.171
			c0.197,0.268,0.513,0.4,0.941,0.4c0.234,0,0.446-0.063,0.634-0.193c0.187-0.127,0.348-0.292,0.479-0.489L316.015,273.541z
			 M314.581,272.115c0-0.149-0.009-0.305-0.021-0.462c-0.013-0.156-0.041-0.285-0.08-0.386c-0.04-0.118-0.1-0.206-0.173-0.266
			c-0.075-0.062-0.168-0.091-0.279-0.091c-0.193,0-0.348,0.098-0.463,0.293c-0.114,0.194-0.177,0.503-0.187,0.924L314.581,272.115z"
			/>
		<path fill="#1C4935" d="M320.108,271.403c0,0.19-0.06,0.357-0.177,0.5c-0.119,0.145-0.272,0.215-0.464,0.215
			c-0.184,0-0.337-0.046-0.463-0.138c-0.127-0.094-0.19-0.226-0.19-0.407c0-0.087,0.006-0.154,0.02-0.204
			c0.013-0.047,0.022-0.093,0.033-0.135c-0.117,0.005-0.237,0.043-0.364,0.119c-0.129,0.074-0.239,0.172-0.336,0.297v2.058
			c0,0.088,0.013,0.161,0.04,0.22c0.027,0.056,0.073,0.102,0.138,0.134c0.058,0.025,0.146,0.05,0.27,0.068
			c0.123,0.019,0.213,0.03,0.269,0.032v0.273h-2.508v-0.273c0.062-0.004,0.124-0.013,0.188-0.021
			c0.064-0.008,0.119-0.02,0.162-0.034c0.081-0.027,0.136-0.069,0.166-0.128c0.029-0.057,0.045-0.132,0.045-0.226v-2.183
			c0-0.089-0.021-0.17-0.063-0.24s-0.094-0.128-0.155-0.171c-0.044-0.03-0.101-0.057-0.17-0.075
			c-0.068-0.021-0.146-0.035-0.227-0.042v-0.273l1.788-0.097l0.058,0.056v0.544h0.015c0.173-0.199,0.356-0.357,0.55-0.471
			c0.193-0.114,0.396-0.17,0.604-0.17c0.232,0,0.419,0.071,0.561,0.216C320.038,270.988,320.108,271.176,320.108,271.403z"/>
		<path fill="#1C4935" d="M322.658,274.436h-2.362v-0.273c0.064-0.004,0.129-0.011,0.19-0.019c0.063-0.007,0.117-0.02,0.164-0.037
			c0.081-0.031,0.135-0.074,0.164-0.129c0.03-0.058,0.043-0.131,0.043-0.225V269.6c0-0.096-0.018-0.184-0.057-0.265
			c-0.041-0.081-0.091-0.144-0.155-0.188c-0.052-0.032-0.127-0.063-0.229-0.092c-0.1-0.031-0.19-0.048-0.267-0.054v-0.273
			l1.889-0.097l0.056,0.059v5.014c0,0.092,0.017,0.169,0.05,0.226c0.034,0.058,0.085,0.103,0.158,0.135
			c0.052,0.021,0.104,0.042,0.159,0.062c0.057,0.017,0.121,0.029,0.196,0.036V274.436L322.658,274.436z"/>
		<path fill="#1C4935" d="M327.041,273.541c-0.089,0.141-0.194,0.276-0.318,0.402c-0.122,0.125-0.264,0.233-0.421,0.324
			c-0.167,0.095-0.338,0.167-0.508,0.216c-0.173,0.049-0.368,0.074-0.591,0.074c-0.369,0-0.689-0.055-0.959-0.16
			c-0.269-0.104-0.49-0.244-0.663-0.422c-0.177-0.178-0.307-0.387-0.393-0.628c-0.088-0.241-0.129-0.504-0.129-0.785
			c0-0.257,0.046-0.499,0.138-0.732c0.097-0.235,0.229-0.441,0.401-0.624c0.169-0.179,0.386-0.322,0.644-0.433
			c0.259-0.109,0.549-0.164,0.868-0.164c0.349,0,0.638,0.041,0.863,0.126c0.224,0.087,0.411,0.203,0.557,0.354
			c0.145,0.143,0.247,0.309,0.312,0.503c0.064,0.195,0.098,0.399,0.098,0.611v0.242h-2.534c0,0.514,0.098,0.903,0.296,1.171
			c0.197,0.268,0.511,0.4,0.941,0.4c0.234,0,0.445-0.063,0.633-0.193c0.188-0.127,0.346-0.292,0.48-0.489L327.041,273.541z
			 M325.609,272.115c0-0.149-0.009-0.305-0.024-0.462c-0.014-0.156-0.04-0.285-0.078-0.386c-0.042-0.118-0.1-0.206-0.175-0.266
			c-0.072-0.062-0.167-0.091-0.277-0.091c-0.194,0-0.347,0.098-0.462,0.293c-0.114,0.194-0.177,0.503-0.187,0.924L325.609,272.115z"
			/>
		<path fill="#1C4935" d="M329.137,274.564c-0.242,0-0.479-0.038-0.711-0.108c-0.229-0.071-0.409-0.146-0.537-0.226l-0.113,0.254
			h-0.294l-0.047-1.399h0.273c0.038,0.114,0.1,0.241,0.188,0.382c0.088,0.144,0.188,0.269,0.3,0.382
			c0.118,0.112,0.251,0.206,0.403,0.284c0.151,0.077,0.313,0.117,0.485,0.117c0.228,0,0.397-0.045,0.509-0.135
			c0.112-0.089,0.166-0.224,0.166-0.41c0-0.1-0.024-0.184-0.075-0.246c-0.051-0.067-0.119-0.122-0.205-0.171
			c-0.097-0.049-0.204-0.092-0.32-0.126c-0.118-0.036-0.26-0.078-0.431-0.128s-0.313-0.101-0.437-0.152
			c-0.121-0.051-0.247-0.132-0.377-0.242c-0.113-0.097-0.201-0.213-0.269-0.353c-0.068-0.137-0.102-0.301-0.102-0.491
			c0-0.353,0.146-0.637,0.441-0.855c0.298-0.217,0.687-0.325,1.166-0.325c0.227,0,0.438,0.022,0.627,0.069
			c0.191,0.045,0.352,0.097,0.482,0.151l0.079-0.221h0.285l0.06,1.277h-0.263c-0.087-0.259-0.237-0.482-0.45-0.673
			c-0.212-0.188-0.439-0.282-0.686-0.282c-0.192,0-0.344,0.039-0.453,0.119c-0.111,0.081-0.165,0.19-0.165,0.334
			c0,0.189,0.08,0.328,0.242,0.412c0.16,0.086,0.384,0.165,0.674,0.239c0.446,0.116,0.774,0.272,0.981,0.471
			c0.206,0.199,0.312,0.453,0.312,0.76c0,0.409-0.163,0.728-0.483,0.952C330.074,274.451,329.654,274.564,329.137,274.564z"/>
		<path fill="#1C4935" d="M333.074,274.564c-0.242,0-0.48-0.038-0.712-0.108c-0.229-0.071-0.409-0.146-0.537-0.226l-0.112,0.254
			h-0.292l-0.049-1.399h0.272c0.038,0.114,0.102,0.241,0.188,0.382c0.088,0.144,0.187,0.269,0.3,0.382
			c0.117,0.112,0.252,0.206,0.403,0.284c0.151,0.077,0.313,0.117,0.485,0.117c0.229,0,0.396-0.045,0.509-0.135
			c0.111-0.089,0.167-0.224,0.167-0.41c0-0.1-0.025-0.184-0.074-0.246c-0.051-0.067-0.119-0.122-0.206-0.171
			c-0.098-0.049-0.205-0.092-0.32-0.126c-0.118-0.036-0.261-0.078-0.431-0.128c-0.169-0.05-0.314-0.101-0.436-0.152
			c-0.121-0.051-0.248-0.132-0.377-0.242c-0.114-0.097-0.203-0.213-0.273-0.353c-0.065-0.137-0.1-0.301-0.1-0.491
			c0-0.353,0.148-0.637,0.445-0.855c0.296-0.217,0.685-0.325,1.163-0.325c0.227,0,0.438,0.022,0.628,0.069
			c0.19,0.045,0.353,0.097,0.481,0.151l0.079-0.221h0.285l0.061,1.277h-0.263c-0.088-0.259-0.237-0.482-0.449-0.673
			c-0.213-0.188-0.444-0.282-0.687-0.282c-0.193,0-0.344,0.039-0.454,0.119c-0.109,0.081-0.165,0.19-0.165,0.334
			c0,0.189,0.081,0.328,0.242,0.412c0.161,0.086,0.385,0.165,0.676,0.239c0.444,0.116,0.772,0.272,0.98,0.471
			c0.206,0.199,0.311,0.453,0.311,0.76c0,0.409-0.16,0.728-0.482,0.952C334.01,274.451,333.591,274.564,333.074,274.564z"/>
		<path fill="#1C4935" d="M337.059,273.814c0,0.197-0.071,0.368-0.217,0.512c-0.147,0.146-0.32,0.218-0.521,0.218
			c-0.203,0-0.377-0.07-0.522-0.213c-0.146-0.146-0.221-0.317-0.221-0.517s0.074-0.374,0.221-0.52
			c0.146-0.146,0.319-0.22,0.522-0.22c0.2,0,0.373,0.073,0.521,0.221C336.987,273.443,337.059,273.616,337.059,273.814z"/>
		<path fill="#FFFFFF" d="M339.578,273.814c0,0.197-0.07,0.368-0.219,0.512c-0.146,0.146-0.318,0.218-0.518,0.218
			c-0.203,0-0.379-0.07-0.523-0.213c-0.146-0.146-0.221-0.317-0.221-0.517s0.074-0.374,0.221-0.52s0.32-0.22,0.523-0.22
			c0.199,0,0.373,0.073,0.518,0.221C339.506,273.443,339.578,273.616,339.578,273.814z"/>
	</g>
</g>
</svg>
